<svg fill="none" height="48" viewBox="0 0 48 48" width="48" xmlns="http://www.w3.org/2000/svg" xmlns:xlink="http://www.w3.org/1999/xlink"><linearGradient id="a" gradientTransform="matrix(1.5934654 0 0 1.2157334 -68.871758 7.893774)" gradientUnits="userSpaceOnUse" x1="118.455" x2="130.646" y1="76.947899" y2="96.879204"><stop offset="0"/><stop offset="1" stop-opacity="0"/></linearGradient><linearGradient id="b" gradientUnits="userSpaceOnUse" x1="0" x2="48" y1="10" y2="48"><stop offset="0" stop-color="#0ff"/><stop offset=".90625" stop-color="#0085ff"/></linearGradient><radialGradient id="c" cx="4" cy="4" gradientTransform="matrix(0 1.8 -1.3 0 9.2 -3.2)" gradientUnits="userSpaceOnUse" r="20"><stop offset="0" stop-color="#1affe3"/><stop offset="1" stop-color="#1affe3" stop-opacity="0"/></radialGradient><linearGradient id="d" gradientUnits="userSpaceOnUse" x1="14" x2="-12" y1="17" y2="51"><stop offset="0" stop-color="#124b5e"/><stop offset="1" stop-color="#124b5e" stop-opacity="0"/></linearGradient><linearGradient id="e" gradientTransform="matrix(.40858088 0 0 .31172652 -23.981364 -4.631958)" gradientUnits="userSpaceOnUse" x1="118.455" x2="130.646" xlink:href="#a" y1="76.947899" y2="96.879204"/><linearGradient id="f" gradientTransform="matrix(.40858088 0 0 .31172652 -13.981364 -4.631958)" gradientUnits="userSpaceOnUse" x1="118.455" x2="130.646" xlink:href="#a" y1="76.947899" y2="96.879204"/><linearGradient id="g" gradientTransform="matrix(.40858088 0 0 .31172652 -13.981364 5.368042)" gradientUnits="userSpaceOnUse" x1="118.455" x2="130.646" xlink:href="#a" y1="76.947899" y2="96.879204"/><linearGradient id="h" gradientTransform="matrix(.40858088 0 0 .31172652 -23.981364 5.368042)" gradientUnits="userSpaceOnUse" x1="118.455" x2="130.646" xlink:href="#a" y1="76.947899" y2="96.879204"/><linearGradient id="i" gradientUnits="userSpaceOnUse" x1="4" x2="4" y1="4" y2="44"><stop offset=".195213" stop-opacity="0"/><stop offset=".93294" stop-color="#055"/></linearGradient><g stroke-width="3"><rect fill="url(#b)" height="40" rx="3" width="40" x="4" y="4"/><rect fill="url(#c)" height="40" rx="3" width="40" x="4" y="4"/><path d="m4 40v1c0 1.662 1.338 3 3 3h34c1.662 0 3-1.338 3-3v-1c0 1.662-1.338 3-3 3h-34c-1.662 0-3-1.338-3-3z" fill="#124b5e"/></g><path d="m7 4a3 3 0 0 0 -3 3v15 8l2.7441406-3.566406 10.2558594 16.566406h6l-12.931641-20.888672 13.931641-18.111328z" fill="url(#d)"/><g stroke-width=".356882"><path d="m29.707031 17.292969-7.414062 7.412109 2.294922 2.294922h7.412109v-7z" fill="url(#e)" opacity=".15"/><path d="m39.707031 17.292969-7.414062 7.412109 2.294922 2.294922h9.412109v-5z" fill="url(#f)" opacity=".15"/><path d="m29.707031 27.292969-7.414062 7.412109 2.294922 2.294922h7.412109v-7z" fill="url(#h)" opacity=".15"/><path d="m39.707031 27.292969-7.414062 7.412109 2.294922 2.294922h9.412109v-5z" fill="url(#g)" opacity=".15"/></g><path d="m23 17c-.554 0-1 .446-1 1v6c0 .554.446 1 1 1h6c.554 0 1-.446 1-1v-6c0-.554-.446-1-1-1zm10 0c-.554 0-1 .446-1 1v6c0 .554.446 1 1 1h6c.554 0 1-.446 1-1v-6c0-.554-.446-1-1-1zm-10 10c-.554 0-1 .446-1 1v6c0 .554.446 1 1 1h6c.554 0 1-.446 1-1v-6c0-.554-.446-1-1-1zm10 0c-.554 0-1 .446-1 1v6c0 .554.446 1 1 1h6c.554 0 1-.446 1-1v-6c0-.554-.446-1-1-1z" fill="#fff" stroke-width="3"/><rect fill="#bbe9ff" height="6" ry=".25" stroke-width="3" width="6" x="23" y="28"/><path d="m23 12c-.554 0-1 .446-1 1v1c0 .554.446 1 1 1h6c.554 0 1-.446 1-1v-1c0-.554-.446-1-1-1zm10 0c-.554 0-1 .446-1 1v1c0 .554.446 1 1 1h6c.554 0 1-.446 1-1v-1c0-.554-.446-1-1-1z" fill="#00789d" stroke-width="1.83712"/><path d="m23.884381 31.064209 1.109152 1.333275c.188898.227072.495198.227072.684096 0l2.560352-3.077717" stroke="#0097d7"/><rect fill="url(#i)" height="40" opacity=".1" rx="3" stroke-width="1.25" width="40" x="4" y="4"/></svg>